<svg xmlns="http://www.w3.org/2000/svg" viewBox="0 0 256 256">
  <path fill="#F05032" d="M251.172 116.594L139.4 4.828c-6.433-6.437-16.873-6.437-23.314 0l-23.21 23.21 29.443 29.443c6.842-2.312 14.688-.761 20.142 4.693 5.48 5.489 7.02 13.402 4.652 20.266l28.375 28.376c6.865-2.365 14.786-.835 20.269 4.657 7.663 7.66 7.663 20.075 0 27.74-7.665 7.666-20.08 7.666-27.749 0-5.764-5.77-7.188-14.235-4.27-21.336l-26.462-26.462-.003 69.637c1.868.935 3.645 2.152 5.244 3.752 7.663 7.66 7.663 20.076 0 27.747-7.665 7.662-20.086 7.662-27.74 0-7.663-7.671-7.663-20.086 0-27.746 1.97-1.97 4.236-3.455 6.65-4.471V101.28c-2.414-1.019-4.68-2.509-6.65-4.478-5.814-5.808-7.21-14.358-4.203-21.488L76.476 46.16 4.867 117.765c-6.437 6.446-6.437 16.887 0 23.322L116.63 251.38c6.437 6.433 16.877 6.433 23.322 0l111.22-111.219c6.437-6.44 6.437-16.887 0-23.327"/>
</svg>
