<svg xmlns="http://www.w3.org/2000/svg" viewBox="0 0 256 289">
  <path fill="#539E43" d="M128 288.464c-3.975 0-7.685-1.058-11.13-2.91l-35.247-20.936c-5.3-2.91-2.65-3.969-1.058-4.498 7.156-2.382 8.478-2.91 15.898-7.156.793-.529 1.852-.264 2.646.264l27.033 16.168c1.058.529 2.381.529 3.175 0l105.292-61.02c1.058-.53 1.587-1.588 1.587-2.91V82.88c0-1.322-.529-2.38-1.587-2.909L129.057 18.95c-1.057-.53-2.38-.53-3.175 0L20.59 79.97c-1.058.53-1.587 1.852-1.587 2.91v121.775c0 1.057.529 2.38 1.587 2.909l28.886 16.697c15.633 7.949 25.433-1.322 25.433-10.33V93.21c0-1.587 1.322-3.174 3.174-3.174h13.517c1.587 0 3.174 1.322 3.174 3.174v120.717c0 20.407-11.13 32.065-30.479 32.065-5.829 0-10.593 0-23.58-6.357l-27.827-15.898C5.035 219.692 0 212.007 0 203.794V82.086c0-8.213 5.035-15.898 13.253-20.143L118.545 1.058c7.95-4.498 18.543-4.498 26.493 0l105.292 60.756c8.214 4.51 13.253 12.194 13.253 20.143v121.51c0 7.95-5.035 15.633-13.253 20.143L144.822 284.23c-3.445 2.116-7.42 2.91-11.395 2.91l.573-.676z"/>
  <path fill="#539E43" d="M159.101 204.588c-46.137 0-55.671-21.201-55.671-39.214 0-1.587 1.322-3.175 3.175-3.175h13.78c1.588 0 2.911 1.058 2.911 2.646 2.117 14.046 8.213 20.937 36.305 20.937 22.258 0 31.803-5.035 31.803-16.96 0-6.886-2.646-11.92-37.363-15.369-28.886-2.91-46.931-9.272-46.931-32.33 0-21.46 18.044-34.183 48.253-34.183 33.918 0 50.61 11.66 52.727 37.098 0 .793-.264 1.587-.793 2.38-.529.53-1.323 1.059-2.117 1.059h-13.78c-1.324 0-2.647-1.058-2.91-2.381-3.175-14.311-11.39-18.808-33.127-18.808-24.374 0-27.298 8.478-27.298 14.836 0 7.685 3.439 10.065 36.305 14.31 32.596 4.246 47.989 10.33 47.989 33.127-.265 23.316-19.343 36.57-53.258 36.57v-.543z"/>
</svg>
