<?xml version="1.0" encoding="utf-8"?>
<!-- Generator: Adobe Illustrator 27.5.0, SVG Export Plug-In . SVG Version: 6.00 Build 0)  -->
<svg version="1.1" id="Layer_1" xmlns="http://www.w3.org/2000/svg" xmlns:xlink="http://www.w3.org/1999/xlink" x="0px" y="0px"
	 viewBox="0 0 3000 3000" style="enable-background:new 0 0 3000 3000;" xml:space="preserve">
<style type="text/css">
	.st0{fill:#e6e6e6;}
</style>
<g>
	<path class="st0" d="M1242.24,1834.06c16.7,0,32.27,0.35,47.81-0.14c8.03-0.25,15.22,1.31,22.53,4.52
		c29.8,13.11,59.76,25.86,89.68,38.71c3.13,1.35,6.37,2.45,10.25,2.31c-3.04-2.24-6.04-4.52-9.11-6.7
		c-36.43-25.76-72.83-51.57-109.35-77.18c-5.66-3.97-9.88-8.72-13.34-14.71c-58.85-101.73-117.89-203.36-176.73-305.09
		c-4.16-7.19-9.22-13.11-15.74-18.27c-33.6-26.59-66.99-53.46-100.43-80.25c-2.74-2.2-5.36-4.55-9.23-7.85
		c27.75-18.16,54.81-35.88,82.48-54c62,57.22,123.6,114.07,185.19,170.91c0.78-0.82,1.08-1.04,1.24-1.34
		c0.14-0.26,0.17-0.61,0.13-0.91c-0.04-0.34-0.11-0.74-0.31-1c-57.25-73.86-114.52-147.72-172.58-222.6
		c26.72-23.56,53.15-46.87,80.51-71c27.66,36.21,54.85,71.8,82.03,107.38c0.64-0.25,1.28-0.51,1.92-0.76
		c-10.62-44.69-21.23-89.38-31.85-134.07c0.52-0.34,1.05-0.68,1.57-1.01c2.81,2.95,5.67,5.84,8.41,8.85
		c56.65,62.41,113.26,124.87,169.99,187.21c4.25,4.67,9.06,8.98,14.13,12.74c36.41,27,72.96,53.8,109.45,80.69
		c2.83,2.08,5.57,4.28,9.03,6.94c-5.58,9.64-11.01,19.04-17.01,29.42c35.65,22.86,70.95,45.51,107.86,69.18
		c-22.19,14.1-44.07,25.94-66.7,39.9c4.34,2.51,7.52,4.46,10.8,6.22c36.49,19.6,72.96,39.21,109.52,58.68
		c5.13,2.73,9.09,6.18,12.48,11.01c28.1,40.04,45.11,85.67,65.74,129.48c0.26,0.55,0.03,1.32,0.03,3.7
		c-21.27-10.52-41.82-20.7-62.38-30.87c-0.43,0.47-0.85,0.93-1.28,1.4c1.04,1.95,1.88,4.05,3.15,5.84
		c16.72,23.74,33.34,47.55,50.38,71.06c4.31,5.95,6.83,12.13,7.94,19.27c5,32.16,10.38,64.27,15.14,96.46
		c0.95,6.41,3.47,9.85,9.41,12.4c96.54,41.58,192.98,83.37,289.46,125.08c2.48,1.07,5.1,1.83,8.43,1.29
		c-3.36-2.32-6.68-4.7-10.08-6.94c-65.87-43.54-131.72-87.11-197.66-130.54c-5.75-3.79-10.3-8.19-13.66-14.32
		c-20.74-37.88-41.64-75.68-62.76-113.34c-3.45-6.15-4.85-12.16-4.35-19.15c1.6-22.21,2.79-44.44,4.23-68.17
		c22.4,7.01,42.72,16.53,65.11,22.27c-2.43-2.69-4.82-5.41-7.29-8.06c-33.9-36.19-67.84-72.32-101.64-108.6
		c-3.06-3.29-5.95-7.17-7.57-11.3c-8.22-21.1-16-42.36-23.88-63.59c-0.59-1.6-0.76-3.35-1.46-6.52
		c24.91,4.84,48.02,13.42,72.86,16.42c-2.58-2.19-5.08-4.49-7.76-6.55c-21.6-16.64-43.11-33.41-64.94-49.74
		c-5.16-3.86-7.23-7.76-6.22-14.19c1.63-10.37,2.47-20.86,3.83-32.96c37.39,21.92,73.26,42.95,109.12,63.97
		c0.47-0.56,0.94-1.11,1.41-1.67c-33.78-32.12-67.56-64.24-101.72-96.72c12.5-26.34,24.74-52.13,37.27-78.53
		c3.82,2.31,6.86,4.05,9.79,5.94c18.72,12.13,37.36,24.38,56.15,36.41c4.13,2.65,8.53,5.2,13.16,6.67c4.81,1.52,6.42,4.41,7.65,8.93
		c3.82,13.98,8.13,27.82,12.42,41.67c1.04,3.36,2.67,6.55,4.16,9.76c9.68,20.76,24.95,32.62,57.34,23.35
		c9.35-2.67,17.85-8.33,27.47-12.96c17.79,15.8,39.74,27.34,60.19,41.08c20.57,13.81,41.36,27.34,62.4,40.43
		c6.26,3.89,8.31,8.29,8.23,15.44c-0.34,32.23,0.08,64.46-0.31,96.69c-0.09,7.59,2.03,12.15,8.81,16.06
		c24.22,13.98,48.11,28.54,71.97,43.13c5.05,3.09,10.14,5.19,15.97,4.23c17.98-2.98,31.56,3.76,44.09,16.63
		c13.3,13.66,28.49,25.49,42.85,38.12c1.6,1.4,2.97,3.43,4.83,4.11c11.97,4.37,11.48,13.88,11.25,24.19
		c-2.21,97.94-17.33,193.81-47.4,287.04c-21.06,65.31-54.71,124.26-95.86,178.92c-61.38,81.53-135.57,149.17-222.19,203.15
		c-1.79,1.12-3.68,2.08-6.29,3.56c-1.51-2.88-2.9-5.54-4.49-8.57c118.22-74.39,213.79-169.8,282.25-294.12
		c-5.47-0.2-9.13-0.44-12.79-0.45c-55.82-0.18-111.19-4.57-164.66-21.66c-32.67-10.44-64.9-22.36-96.95-34.59
		c-49.59-18.92-98.53-39.55-149.37-55.08c-41.76-12.76-84.12-22.17-127.88-24.75c-61.13-3.6-118.82,9.03-174.06,34.96
		c-23.68,11.11-47.68,21.76-72.21,30.79c-35.79,13.17-73.51,17.93-111.27,21.38c-33.9,3.1-67.85,3.1-101.87,0.72
		c-66.17-4.63-129.12-20.81-188.37-50.73c-24.01-12.12-47.68-24.91-71.49-37.44c-34.89-18.35-70.92-33.52-109.54-42.47
		c-37.89-8.78-75.73-9.24-113.85-2.73c-10.76,1.84-21.52,3.74-33.58,5.84c1.35,9.72,2.45,18.72,3.88,27.66
		c14.24,89.07,38.64,175.09,83.55,253.75c83.01,145.39,204.8,242.95,366.53,288.32c38.05,10.67,77.55,16.17,116.4,23.99
		c64.89,13.05,130.45,17.74,196.52,15.07c77.69-3.14,154.38-13.58,229.69-33.32c2.7-0.71,5.43-1.28,8.64-2.03
		c1.32,2.67,2.52,5.09,4,8.08c-1.88,0.92-3.3,1.99-4.88,2.33c-32.13,7.04-64.09,15.11-96.48,20.74
		c-61.86,10.76-124.31,15.68-187.15,15.18c-57.95-0.46-115.04-8.18-171.71-19.67c-31.21-6.33-62.7-11.54-93.54-19.33
		c-84.03-21.22-159.3-60.44-226.35-115.06c-91.14-74.24-156.02-167.17-195.31-278c-21.49-60.61-36.11-122.87-44.02-186.61
		c-7.58-61.03-7.71-122.22-0.53-183.35c0.16-1.36,0.61-2.68,1.14-4.96c56.58-6.2,113.13-12.4,170.96-18.74
		c19.86,37.72,39.74,75.5,59.5,113.04c53.81,0,106.99,0,160.17,0c0.11-0.54,0.22-1.08,0.33-1.62c-2.74-1.24-5.44-2.59-8.23-3.7
		c-22.37-8.88-44.64-18-67.2-26.38c-7.03-2.61-10.82-6.33-12.69-13.67c-5.34-20.9-11.64-41.56-17.09-62.43
		c-1.79-6.86-5-11.82-10.83-16.05c-28.95-20.99-57.55-42.47-86.43-63.57c-4.65-3.4-7.18-6.74-6.89-13
		c2.44-53.06,4.51-106.14,6.73-159.21c0.04-0.98,0.45-1.95,1.09-4.56c34.78,22.02,68.46,44.49,103.49,65.74
		c-12.97-37.88-28.37-74.69-42.72-112.86c31.83-30.8,63.57-61.52,95.73-92.63c2.6,1.57,5.05,2.8,7.22,4.4
		c38.44,28.41,76.92,56.79,115.19,85.44c4.09,3.06,7.79,7.3,10.26,11.77c34.31,62.32,68.43,124.75,102.4,187.26
		c2.99,5.5,5.17,11.64,6.65,17.74c6.76,27.85,13.14,55.79,19.68,83.69C1240.54,1828.54,1241.42,1831.19,1242.24,1834.06z"/>
	<path class="st0" d="M1736.09,1331.61c-41.11,48.26-81.91,96.15-123.43,144.89c-14.58-6-28.99-11.67-43.13-17.94
		c-2.98-1.32-5.2-4.66-7.44-7.35c-38.93-46.83-77.87-93.66-116.62-140.65c-4.26-5.17-8.92-8.4-15.54-9.95
		c-19.97-4.68-39.75-10.2-59.72-14.9c-6.43-1.51-10.33-4.84-13.62-10.39c-24.06-40.46-48.33-80.8-72.68-121.09
		c-2.34-3.87-5.16-7.71-8.56-10.62c-30.36-26.06-60.9-51.92-91.39-77.82c-1.32-1.12-2.78-2.09-4.93-3.68
		c-1.98,2.72-3.91,5.06-5.5,7.6c-18.33,29.45-36.5,59.01-55.02,88.33c-3.33,5.27-7.44,10.46-12.3,14.27
		c-84.35,66.3-168.89,132.34-253.29,198.57c-6.06,4.76-12.5,7.68-22.26,8.73c3.01-4.1,5.01-7,7.2-9.76
		c26.71-33.59,56.94-63.96,86.39-95.09c72.02-76.14,143.18-153.1,215.29-229.16c39.46-41.62,79.83-82.4,120.32-123.02
		c64.85-65.07,122.09-135.87,164.96-217.49c34.97-66.58,58.28-137.23,71.95-211.16c10.01-54.14,14.87-108.7,13.94-163.7
		c-0.7-41.44-4.12-82.71-11.55-123.56c-0.44-2.43-0.68-4.91-0.95-7.37c-1.54-13.96,8.46-23.61,22.15-20.09
		c17.78,4.58,35.11,10.12,50.44,21.37c42.46,31.19,77.41,69.08,106.83,112.71c45.73,67.83,83.42,139.61,112.02,216.29
		c26.51,71.07,48.55,143.39,62.97,217.9c7.33,37.9,12.53,76.17,13.76,114.79c1.16,36.43,2.2,72.92,1.43,109.34
		c-0.99,47.09-6.08,93.91-13.6,140.44c-8.69,53.78-17.65,107.53-25.58,161.42c-4.27,29.02-7.85,58.23-7.14,87.72
		c0.04,1.7-0.31,3.4-0.64,6.74C1791.87,1356.73,1764.76,1343.17,1736.09,1331.61z M1556.1,1201.62
		c96.64,0.36,175.6-77.87,175.93-174.28c0.33-97.11-78.02-176.18-174.99-176.58c-96.4-0.4-175.37,78.05-175.73,174.58
		C1380.96,1122.89,1458.66,1201.26,1556.1,1201.62z M1258.31,1026.35c-6.18,9.05-12.01,17.59-17.84,26.13c0.5,0.41,1,0.82,1.51,1.23
		c8.65-5.86,17.3-11.71,25.92-17.55c9.13,6.13,17.62,11.82,26.1,17.52c0.37-0.48,0.74-0.97,1.1-1.45
		c-5.87-8.69-11.74-17.37-17.51-25.91c6.29-9.23,12.06-17.69,17.83-26.15c-0.51-0.41-1.03-0.82-1.54-1.23
		c-8.64,5.95-17.28,11.91-26.01,17.93c-9.21-6.35-17.74-12.23-26.27-18.11c-0.42,0.51-0.85,1.02-1.27,1.54
		C1246.11,1008.67,1251.89,1017.05,1258.31,1026.35z M1755.55,1209.67c7.23,4.84,13.83,9.25,20.42,13.66
		c0.44-0.4,0.88-0.79,1.32-1.19c-4.59-6.8-9.17-13.61-13.79-20.47c4.79-7.09,9.15-13.56,13.52-20.03c-0.52-0.4-1.03-0.81-1.55-1.21
		c-6.63,4.38-13.26,8.77-19.93,13.18c-7.36-4.86-14.16-9.35-20.97-13.85c-0.32,0.43-0.64,0.87-0.96,1.3
		c4.7,6.91,9.4,13.81,14.07,20.68c-4.99,7.3-9.46,13.84-13.93,20.37c0.45,0.41,0.9,0.83,1.35,1.24
		C1741.7,1218.96,1748.29,1214.54,1755.55,1209.67z M1649.45,465.71c-0.34,0.32-0.68,0.64-1.02,0.97c3.85,6,7.7,12,11.58,18.03
		c-4.05,6.13-7.79,11.77-11.52,17.41c0.48,0.35,0.96,0.71,1.45,1.06c5.78-3.87,11.56-7.73,17.3-11.57
		c6.15,4.09,11.79,7.85,17.43,11.6c0.37-0.41,0.74-0.82,1.11-1.23c-3.75-5.8-7.5-11.59-10.94-16.91c2.1-7.28,8.93-11.26,10.28-19.47
		c-6.67,4.36-12.21,7.99-17.89,11.71C1661,473.25,1655.22,469.48,1649.45,465.71z M1548.74,1279.35c5.23,3.21,9.77,6,14.31,8.78
		c0.32-0.48,0.65-0.96,0.97-1.44c-2.97-4.65-5.95-9.3-8.82-13.81c3.47-5.37,6.45-9.98,9.43-14.59c-0.36-0.35-0.71-0.7-1.07-1.05
		c-4.89,3.11-9.79,6.22-14.71,9.34c-5.11-3.21-9.97-6.25-14.82-9.29c-0.29,0.39-0.58,0.78-0.87,1.18c3.16,4.93,6.32,9.87,9.33,14.56
		c-3.4,5.33-6.33,9.91-9.26,14.5c0.36,0.36,0.72,0.72,1.08,1.08C1538.94,1285.65,1543.56,1282.68,1548.74,1279.35z M1736,887.42
		c3.64,5.69,3.36,10.68-0.57,16.13c5.36-3.5,10.29-4.28,15.94-0.46c-4.47-5.6-2.41-10.54,0.05-15.86
		C1746.2,890.99,1741.5,892.24,1736,887.42z M1377.17,886.87c-4.73,5.81-9.28,3.09-15.23,0.74c6.89,5.26,2.47,9.78,0.73,15.41
		c5-5.71,9.6-4.05,15.37-0.49C1372.49,897.22,1374.26,892.56,1377.17,886.87z M1545.49,672.34c0.59,0.58,1.17,1.16,1.76,1.73
		c2.16-2.35,4.31-4.7,7.82-8.53c-4.74,0.21-7.07,0.31-9.58,0.42C1545.49,668.28,1545.49,670.31,1545.49,672.34z"/>
	<path class="st0" d="M1980.72,1435.71c4.26-11.51,8.1-22.87,12.61-33.96c20.82-51.2,26.35-104.69,23.99-159.34
		c-1.88-43.52-5.79-86.83-14.19-129.64c-1.63-8.32-3.35-16.65-4.31-25.06c-0.55-4.81-0.3-9.93,0.71-14.67
		c4.24-19.88,20.3-25.9,36.44-13.37c6.93,5.38,13.34,11.72,18.93,18.49c32.04,38.83,60.95,79.87,85.75,123.75
		c27.04,47.84,44.58,99.16,57.15,152.46c15.69,66.49,27.63,133.66,38.1,201.13c5.42,34.94,12.09,69.68,17.85,104.57
		c6.76,40.93,9.72,82.19,10.2,123.65c0.02,1.73-0.25,3.47-0.41,5.55c-7.68,0.81-12.9-3.37-18.15-7.45
		c-30.75-23.89-61.49-47.78-92.24-71.68c-13.14-10.21-26.1-20.65-39.49-30.51c-4.77-3.51-6.1-7.31-4.73-12.67
		c0.61-2.4,0.84-4.89,1.51-7.27c6.25-22.02,3.18-44.24,1.49-66.43c-0.59-7.76-1.28-15.52-1.76-23.29
		c-0.36-5.87-2.24-10.59-6.71-14.93c-37.31-36.28-74.37-72.82-111.54-109.24C1988.41,1442.38,1984.63,1439.22,1980.72,1435.71z
		 M2156.72,1477.82c6.1-9.09,11.83-17.64,17.57-26.19c-0.47-0.38-0.95-0.75-1.42-1.13c-8.64,5.8-17.27,11.6-25.83,17.34
		c-8.77-5.84-16.77-11.17-24.78-16.5c-0.49,0.53-0.98,1.05-1.47,1.58c5.51,8.31,11.02,16.61,16.56,24.96
		c-6.17,8.96-11.86,17.23-17.54,25.49c0.51,0.54,1.01,1.07,1.52,1.61c8.52-5.91,17.04-11.81,25.55-17.71
		c9.13,6.1,17.58,11.75,26.02,17.39c0.41-0.54,0.83-1.09,1.24-1.63C2168.37,1494.67,2162.59,1486.31,2156.72,1477.82z
		 M2111.34,1395.55c-2.49,1.01-4.99,2.81-7.47,2.79c-2.3-0.02-4.59-2-6.88-3.12c3.51,5.58,2.95,10.51-0.43,16.76
		c5.34-7.41,10.44-2.59,15.8-1.28C2108.19,1405.48,2108.28,1400.83,2111.34,1395.55z"/>
	<path class="st0" d="M2352.94,2829.83c-13.06,10.01-25.11,19.26-37.43,28.71c-4.58-2.06-8.75-3.9-12.89-5.81
		c-278.96-128.67-557.93-257.33-836.86-386.06c-8.09-3.73-16.21-6.8-25.17-7.85c-5.21-0.61-10.52-1.98-15.31-4.09
		c-10.67-4.7-20.98-9.98-32.65-12.32c-4.02-0.8-8.35-4.28-10.81-7.75c-4.44-6.28-10.23-8.7-17.22-11.08
		c-9.93-3.39-19.33-8.59-28.58-13.7c-8.99-4.97-17.58-9.81-28.27-11.21c-14.01-1.83-23.86-18.48-20.83-33.33
		c2.23-10.93,7.37-20.67,14.57-29.15c5.58-6.57,12.91-10,21.68-8.95c14.15,1.7,28.18,1.19,42.36-0.16
		c5.94-0.57,12.41,1.96,18.3,4.03c9.65,3.38,18.86,8.04,28.56,11.25c17.1,5.65,30.95,16.11,41.89,29.74
		c11.96,14.89,27.04,24.64,43.92,32.48c278.61,129.44,557.17,258.96,835.9,388.14c9.48,4.39,14.75,9.65,15.44,20.05
		C2349.91,2818.3,2351.68,2823.76,2352.94,2829.83z M1798.81,2549.89c-10.38-7.6-275.36-130.2-283.1-131.19
		c0.65,1.74,1.74,3.36,1.77,5c0.18,8.13,5.46,11.38,12.07,14.26c5.45,2.38,10.5,5.81,15.45,9.19c5.19,3.54,10.06,7.58,15.07,11.39
		c5.72,4.34,11.44,8.68,17.16,13.02c-2.98,1.8-5.1,2.14-6.83,1.47c-5.6-2.16-11.14-4.54-16.57-7.12
		c-22.67-10.79-45.25-21.74-67.93-32.5c-7.55-3.59-15.33-6.34-24.54-3.24c2.63,7.25,8.46,9.22,13.78,11.69
		c60.03,27.78,120.09,55.52,180.13,83.28c29.86,13.8,59.7,27.67,89.61,41.35c3.06,1.4,7.23,3.29,9.84,2.27
		C1769.39,2563.01,1783.74,2556.44,1798.81,2549.89z M1746.34,2572.42c-4.32-2.38-6.89-3.98-9.62-5.26
		c-14.42-6.76-28.87-13.45-43.32-20.15c-72.88-33.78-145.76-67.58-218.69-101.26c-4.1-1.89-8.61-3.66-13.01-3.86
		c-2.94-0.14-7.57,1.94-8.57,4.26c-0.93,2.17,1.05,7.06,3.28,8.84c5.75,4.6,12.02,8.83,18.67,11.99
		c25.57,12.15,51.37,23.8,77.08,35.66c53.98,24.91,107.94,49.88,161.98,74.66c3.67,1.68,8.25,3.37,11.92,2.63
		C1732.44,2578.65,1738.43,2575.48,1746.34,2572.42z"/>
	<path class="st0" d="M1379.23,2271.43c-1.46,2.68-2.93,5.35-4.38,8.01c1.56,2.91,2.98,5.54,5.51,10.25
		c-4.66-2.4-7.29-3.75-10.34-5.32c-2.53,1.35-5.25,2.81-8.49,4.54c0-1.34-0.3-2.37,0.06-3.09c1.07-2.17,2.38-4.22,3.57-6.27
		c-1.54-2.93-2.93-5.58-5.37-10.23c4.62,2.32,7.27,3.65,10.33,5.18c2.49-1.34,5.19-2.8,7.88-4.26
		C1378.41,2270.64,1378.82,2271.03,1379.23,2271.43z"/>
	<path class="st0" d="M1363.62,2475.11c2.4,1.37,4.81,2.74,7.54,4.3c2.62-1.45,5.19-2.88,9.87-5.47c-2.53,4.39-3.85,6.69-5.53,9.61
		c1.27,2.38,2.7,5.05,4.13,7.72c-5.44-2.79-10.65-4.1-16.46,0.73C1367.25,2486.05,1367.54,2480.83,1363.62,2475.11z"/>
	<path class="st0" d="M1263.78,2283.11c-4.32,6.31-3.68,11.29,0.42,16.85c-5.51-2.92-10.63-5.11-16.44-0.26
		c3.6-5.83,3.39-10.8-0.68-16.13C1252.71,2285.73,1258.05,2289.89,1263.78,2283.11z"/>
	<path class="st0" d="M1484.63,2329.95c5.24,4.52,9.9,4.23,16.39-2.04c-2.55,7.53-7.21,12.79-0.3,18.33
		c-6.1-3.71-11.03-3.55-16.63-0.09C1489.31,2340.65,1486.59,2335.43,1484.63,2329.95z"/>
	<path class="st0" d="M1253.51,2351.23c3.03,1.37,5.64,2.54,7.93,3.58c-1.38,2.73-2.83,5.61-4.1,8.14c-2.2-1.42-4.69-3.02-7.22-4.65
		C1251.25,2355.96,1252.51,2353.32,1253.51,2351.23z"/>
	<path class="st0" d="M1328.06,2296.26c0-2.1,0-4.37,0-6.97c2.12,0.11,4.36,0.22,6.67,0.34c0.18,2.24,0.34,4.22,0.54,6.64
		C1332.88,2296.26,1330.48,2296.26,1328.06,2296.26z"/>
	<path class="st0" d="M1290.62,2426.05c5.39-0.23,7.44,2.56,7.2,7.62c-2.32-0.19-4.64-0.39-7.2-0.6
		C1290.62,2430.65,1290.62,2428.31,1290.62,2426.05z"/>
</g>
</svg>
